<svg id="Layer_1" data-name="Layer 1" xmlns="http://www.w3.org/2000/svg" viewBox="0 0 300 300"><defs><style>.cls-1{fill:none;stroke:#fedd10;stroke-miterlimit:10;stroke-width:2px;}.cls-2{fill:#fedd10;}</style></defs><title>graphics</title><circle class="cls-1" cx="150" cy="156.47" r="60.25"/><path class="cls-2" d="M147.91,135.71c-6.16-1.4-10.53-6.36-10.54-12.76l-1,.72a20.53,20.53,0,0,1,8.6,3.12c3,2.15,3.29,6,2.95,9.47l1.39-.38c-1-2.26-3.24-3.9-4.9-5.64-2.16-2.28-4.23-4.63-6.25-7-.62-.74-1.67.33-1.06,1.06,1.8,2.16,3.65,4.27,5.57,6.32,1.72,1.83,4.36,3.72,5.35,6.06.32.76,1.33.26,1.4-.38.33-3.25.14-7.22-2.33-9.67-2.63-2.6-6.79-3.81-10.32-4.37a.77.77,0,0,0-.95.73,14.48,14.48,0,0,0,11.64,14.21c.94.21,1.34-1.24.4-1.45Z"/><path class="cls-2" d="M149.32,135.67c1.59-4.14,1.14-8.17.48-12.47-1.09-7-.05-12.51,2.57-19.07l-1.48-.2c-.15,4.55,1.65,8.84,1.42,13.48-.26,5.56-1.26,12.18-3.89,17.17a.75.75,0,0,0,1.18.9c4.73-3.76,9.16-8.65,11.34-14.38,2.13-5.57.53-12.2,0-17.94a.76.76,0,0,0-1.4-.38c-3,4.43-5.38,8.62-6.18,14-.68,4.54.11,12.93-3.84,15.95-.76.57,0,1.88.76,1.29,3.08-2.35,3.21-5.94,3.65-9.56s.6-7.38,1.58-10.88c1-3.68,3.22-6.88,5.33-10l-1.4-.38c.52,6.08,2.17,13-.54,18.79a35.92,35.92,0,0,1-10.4,12.47l1.17.91c2.3-4.36,3.09-9.37,3.73-14.22a35.09,35.09,0,0,0,.28-8.32c-.31-3-1.43-5.82-1.33-8.86,0-.9-1.18-.93-1.47-.2-1.92,4.81-3.64,9.56-3.26,14.81.42,5.72,2.37,11.1.21,16.73-.34.91,1.11,1.3,1.45.4Z"/><path class="cls-2" d="M149.15,134.39c-.22,1.9-2.22,2.78-3.48,3.93-.61.56-1.78,1.68-1.47,2.64s1.41,1,2.14.89a5,5,0,0,0,3.14-2.34l-1.37-.57c-.48,1.4.36,4.1,2.3,3.66,2.24-.51.75-4,.23-5.23l-1,1c1,.57,3,1.56,3.44-.09a3,3,0,0,0-.17-2,4.17,4.17,0,0,0-.64-.79,3.37,3.37,0,0,1-.89-2.3c0-1-1.54-1-1.5,0a5.48,5.48,0,0,0,.37,2.2c.33.71,1.91,1.77,1.29,2.61l.65-.37a3.55,3.55,0,0,1-1.8-.6c-.71-.4-1.3.37-1,1a5.9,5.9,0,0,1,.69,2.25c-.16,1.31-.71-.36-.49-1,.3-.87-.89-1.19-1.37-.57s-1.78,2.29-2.72,1.47l.19.73c.23-1.57,2.39-2.46,3.43-3.48a5,5,0,0,0,1.57-3.09c.11-1-1.39-.95-1.5,0Z"/><path class="cls-2" d="M148.37,139.7l-6.06,3.07-1.19-.79a16.36,16.36,0,0,1-2.26-1.76,18.91,18.91,0,0,0-4.55-2.57,16.84,16.84,0,0,0-9.66-.61c-6.61,1.59-11.17,7.2-12.31,13.76a.76.76,0,0,0,1.25.73c5.8-5.93,16.24-7.19,24-4.88,4.73,1.41,9.25,5.13,9.36,10.48.08,3.86-4.55,3.23-7.43,4.37-.61.24-.81,1.3,0,1.45,9.56,1.73,8.46,12.48,5.36,19.11a.76.76,0,0,0,.64,1.13c2.2,0,3.06,24.81,3.27,27.35.07,1,1.53,1,1.5,0a74.87,74.87,0,0,1,.13-10.8c.47-4.21,2.17-7.78,3.07-11.85a18.41,18.41,0,0,0,.07-7,52.32,52.32,0,0,1-.95-6.21c-.11-3.69,2.14-10.58,7.62-7.18a.76.76,0,0,0,1.1-.85,6.22,6.22,0,0,0-5-5.21c-.71-.13-2.22.33-2.76.13-2.23-.85-1.12-5.46-.34-7,1.23-2.37,4-3.3,6.46-3.2,5.33.21,9.35,5.27,14.35,7a23.84,23.84,0,0,0,13.13.48.75.75,0,0,0,.45-1.1c-1.89-2.56-1.66-5.69-2.93-8.51a14.2,14.2,0,0,0-5.16-5.84c-6.27-4.19-14-3.5-21.17-2.76-.77.08-1.11,1.34-.2,1.47a19.62,19.62,0,0,1,6.8,2.29l.18-1.37c-5.15,1.89-12.62,4.09-15.5-2.52-.39-.89-1.68-.12-1.3.75,3.12,7.17,11.33,5.37,17.2,3.22a.76.76,0,0,0,.18-1.37,20.08,20.08,0,0,0-7.16-2.44l-.2,1.47c9.64-1,22.61-1.41,25.74,10.23a21.23,21.23,0,0,1,.88,3.81c.06,2.21,1.94,1.73-2.79,1.9a22.45,22.45,0,0,1-13.28-4c-4.31-2.82-8.82-6.21-14-3.16-4.45,2.62-5,7.94-2.76,12.19a.78.78,0,0,0,1,.27q5.83-1.36,6.71,3.67l1.1-.85c-6.79-4.21-10.37,4.47-9.74,9.92.32,2.79,1.27,5.56,1.15,8.38-.12,3.17-1.33,6-2.22,9-1.67,5.55-1.57,11.3-1.38,17h1.5l-2.2-27.8a.78.78,0,0,0-.55-.72,3.44,3.44,0,0,0-2-.33l.65,1.12c3.53-7.53,4.24-19.41-6.25-21.31V163a18.17,18.17,0,0,1,7-1.34.78.78,0,0,0,.73-.55c2.83-7.66-3.32-14.25-10.45-16.08-8.18-2.09-18.61-.72-24.68,5.49l1.25.73c1.06-6.07,5.12-11.19,11.27-12.71,6.59-1.63,10.78,1.93,15.91,5.18,3.61,2.29,11.35,1.59,8.86-4.37-.37-.87-1.82-.49-1.45.4Z"/></svg>