<svg id="Layer_1" data-name="Layer 1" xmlns="http://www.w3.org/2000/svg" viewBox="0 0 300 300"><defs><style>.cls-1{fill:none;stroke:#f2cd1a;stroke-miterlimit:10;stroke-width:2px;}.cls-2{fill:#f2cd1a;}</style></defs><title>graphics</title><circle class="cls-1" cx="150" cy="150" r="60.25"/><path class="cls-2" d="M149.33,198.62a48.79,48.79,0,0,0-1-13.47,49.65,49.65,0,0,1-.21-17.36c.26-1.66.42-3.49-1.29-4.4a2.29,2.29,0,0,0-3.29.92l1.3.76c2.64-4.58,5.57-13,3.28-18.25a6.59,6.59,0,0,0-4.64-3.73c-1.5-.43-5.36.21-5.43-2.38,0-.41,7.48,1,8.61,1.33a.76.76,0,0,0,.92-.53c1.38-9.55-.17-19.91-11.28-21.75-10.76-1.79-21.79,1.95-30.08,8.77l1.28.53c-.08-10,8.81-17.64,18.65-16.92a22.54,22.54,0,0,1,12.91,5.51c1.88,1.62,3.55,4.51,6.16,5,3.95.78,4.44-3.64,3.85-6.49a12.65,12.65,0,0,0-3.75-6.66c-3.43-3.16-8.82-3.65-9.91-9l-.92.92c6.67,1.23,12.25,3.42,13.13,11,.45,3.88.23,7.62,1.65,11.33a.76.76,0,0,0,.92.52q9.66-2.5,19.45-4.51a.76.76,0,0,0,0-1.45,25.59,25.59,0,0,0-12.39.12l.57,1.37c9.08-6.41,21.59-5.37,28.93,3.22a23.13,23.13,0,0,1,4.11,7.1c.9,2.51,2.36,5.46-.79,6.33-4.82,1.34-13.1,1.21-17.16-1.48-5.4-3.59-11.86-11.78-19.1-11-6.32.69-5.47,12.63-5.12,17a.76.76,0,0,0,1.13.65c3.92-1.75,10.21-2.66,11.11,3.24l.92-.92c-3.32-1.33-7.41-2.76-10.64-.39-3.61,2.65-2,7.89-1.61,11.61.73,6.88,1.1,13.05-.31,19.9-1.06,5.12-2.07,9.9-.68,15.06a.75.75,0,0,0,1.44-.4c-2.19-8.19,2-16.24,1.93-24.5-.06-3.9-.64-7.82-1.05-11.69-.16-1.45-.72-3.31-.47-4.72,1.31-7.4,7.18-4.95,11-3.42.59.24,1-.43.92-.92-1-6.86-8.42-6.33-13.31-4.15l1.13.65a38.07,38.07,0,0,1,0-7c.45-4.24,1-8.37,6.45-8.19,4,.14,9.41,5.8,12.39,8.09,2.77,2.13,5.18,4.23,8.76,4.59,4.9.5,10.25-.31,15.13-.75a.76.76,0,0,0,.75-.75c-1.06-18.29-21.14-29.36-36.59-18.46a.75.75,0,0,0,.57,1.37,23.85,23.85,0,0,1,11.6-.11v-1.45c-5.31,1.09-10.6,2.71-15.93,3.61-3.72.63-3.54-.61-3.87-4.52-.18-2.12-.15-4.26-.5-6.36-1.26-7.52-7.24-9.79-14.05-11a.76.76,0,0,0-.92.92,9.18,9.18,0,0,0,4.36,6c3.05,2,10.29,4.89,9.29,9.64-1.6,7.6-7.72-.38-10-1.93a23.74,23.74,0,0,0-9.06-3.7c-11.39-2.06-22.64,6.2-22.54,18.1a.76.76,0,0,0,1.28.53,37,37,0,0,1,27.38-8.54c6.18.7,10.53,4.13,11.72,10.26.34,1.75,1.15,7.54-1.05,8.8-.57.33-4.49-.8-5.49-.84-2.33-.09-7,1-3.81,3.93,3.7,3.4,11.15-1.15,11.23,7.49a28.73,28.73,0,0,1-3.72,13.62.75.75,0,0,0,1.3.76c1.64.78,2.19,1.79,1.65,3-.22.76-.41,1.53-.56,2.3-.11.59-.2,1.21-.26,1.81a33.85,33.85,0,0,0,.36,8.29c.84,6.08,2.42,12,1.81,18.14-.1,1,1.41.95,1.5,0Z"/></svg>