<svg id="Layer_1" data-name="Layer 1" xmlns="http://www.w3.org/2000/svg" viewBox="0 0 300 300"><defs><style>.cls-1{fill:none;stroke:#c1272d;stroke-miterlimit:10;stroke-width:2px;}.cls-2{fill:#c1272d;}</style></defs><title>graphics</title><circle class="cls-1" cx="141.25" cy="149.46" r="60.25"/><path class="cls-2" d="M141.54,203.73c1.36-7.7-2.06-14.89-1.47-22.54.1-1.38,2.18-9.88-2.65-7.09l1.1.85c1.45-4,4.34-11,2.42-15.38a5.19,5.19,0,0,0-2.83-2.75c-1.2-.6-2.76-.56-3.92-1.21-4.49-2.53,4.18-.42,5.18-.18a.76.76,0,0,0,.95-.73c.63-8.21-.49-16.45-9.77-18.52-9-2-19,1.57-26.15,7l1.1.85c.79-3.46,1.61-7.09,3.84-9.93,3.25-4.15,8.52-4.57,13.39-3.86s8.35,2.73,12.27,5.39c1.34.91,2.72,2.34,4.52,1.69,2.51-.89,2.26-4,1.53-6a9.73,9.73,0,0,0-4-4.88c-2.5-1.64-5-2.18-6.51-5.17a18.43,18.43,0,0,1-1.46-6.7l-1.13.65a20.17,20.17,0,0,0,4.63,2.11,9.79,9.79,0,0,1,6.82,7.94c.52,2.86-.44,3.11-1.78,5-.73,1.06-.83.74-.93,2.08a.77.77,0,0,0,.37.65c2,1.24,3.12-.11,3.73-2.07l-1.25.33a7.81,7.81,0,0,0,3.62,2,.76.76,0,0,0,.92-.92c-.37-1.9-1.13-2.43-3-2.61v1.5a3.85,3.85,0,0,0,3.26-1.83.76.76,0,0,0-.27-1c-1.88-1.24-.68.06-2.71-.67-2.33-.84-2.57-3-3.78-5a19.21,19.21,0,0,0-8.68-7.34c-.88-.4-1.64.9-.76,1.29a18.56,18.56,0,0,1,6.12,4.21c2.05,2.2,2.48,4.81,4.12,7.12.67.93,1.4,1.83,2.7,1.71a.75.75,0,0,0,0,1.5l1.54,1.51.92-.93-3-1.58a.76.76,0,0,0-1.25.33c-.41,1.3,1.64-1.3,1.73-1.54.63-1.81-.32-5.34-.92-7-2-5.64-7-5.15-11.45-8.1a.75.75,0,0,0-1.13.64c.46,4.87,1.32,9.12,5.75,11.75,2,1.2,4.64,2,5.8,4.38q-.52,7.67-4.31,2.94c-.26-.2-.52-.38-.8-.56a27,27,0,0,0-7.94-3.67c-5-1.36-11.59-1.75-15.94,1.66-3.82,3-5.07,8.12-6.1,12.6-.13.57.54,1.27,1.1.84,7.13-5.37,22.09-11.52,30.06-4.47,2.81,2.48,3.66,5.73,3.82,9.34.11,2.38.53,3.77-1.75,4.12s-4.6-1.5-6.7.39a.74.74,0,0,0-.19.73c1,2.55,3.15,2,5.44,3.11,6.69,3.37,3.17,11.53,1.24,16.89-.23.63.57,1.15,1.1.84.88-.5.44,5.12.4,5.8a31.18,31.18,0,0,0,.39,6.47c.74,5.26,2.08,10.33,1.14,15.67-.17.94,1.27,1.35,1.44.4Z"/><path class="cls-2" d="M141.73,129.78c-.09-2.66.87-5.06,1.09-7.68a27,27,0,0,0-.69-6.7c-1.29-7.85,2.34-13,7.78-18.16l-1.26-.33c.78,2.13,2,4,2.87,6.07a12.58,12.58,0,0,1-.66,11.28c-2.6,5-7.22,8.72-10.72,13.07l1.17.91c4.88-9.73,9.59-19.78,8.66-30.93-.08-1-1.58-1-1.5,0,.91,10.92-3.68,20.65-8.45,30.17-.36.71.61,1.61,1.18.91,3.94-4.88,9.26-9,11.71-15,2.86-6.91-.52-10.57-2.81-16.9a.75.75,0,0,0-1.25-.33c-3.73,3.56-7.7,7.7-8.54,13-.45,2.81.26,5.45.68,8.21.67,4.41-.91,8.06-.76,12.36,0,1,1.53,1,1.5,0Z"/><path class="cls-2" d="M140.6,132.14c-.16,3.91-.4,6.65,3.82,7.32,5.24.83,9.11-2.62,14-3.39.8-.12.62-1.22,0-1.44a23.74,23.74,0,0,0-8.63-1.46l.2,1.47c6.84-1.27,14.1-2.3,19.91,2.39,4.4,3.55,6.68,8.82,7.78,14.24l.92-.93c-5.9-1-11.75,1.88-17.21-1.53-4.17-2.61-7-6.49-12-7.7-7.38-1.77-9.27,7.93-7.95,13.37a.76.76,0,0,0,1.11.45,6.19,6.19,0,0,1,9.25,3l.93-.92c-3-.77-6.64-1.55-9.16.82-3.24,3.06-1.06,8.22-.93,11.92a.75.75,0,0,0,1.5,0c-.06-1.81-.66-3.7-.62-5.48.12-5.9,4.19-7,8.81-5.82.5.13,1.14-.36.92-.92-1.08-2.75-3-4.9-6.13-5.3-.78-.1-3.9.82-4.15.67-.71-.43-.58-2.08-.56-2.92.07-3.24,2-7.42,5.87-7.64,5.17-.29,9.37,6.28,13.61,8.5,5.31,2.79,10.72,0,16.31.92a.76.76,0,0,0,.92-.92c-1.21-6-3.89-11.84-8.91-15.53-6.12-4.52-13.6-3.45-20.62-2.15-.84.16-.63,1.48.2,1.48a23,23,0,0,1,8.23,1.4v-1.44c-5.21.81-16.36,8.06-15.94-2.49,0-1-1.46-1-1.5,0Z"/><path class="cls-2" d="M141.78,203.41a109.64,109.64,0,0,1,1.49-20.79c.84-5,1.52-9.52.78-14.56-.14-.95-1.59-.55-1.45.4.9,6.08-.58,11.76-1.4,17.75a109.88,109.88,0,0,0-.92,17.2.75.75,0,0,0,1.5,0Z"/></svg>