<svg id="Layer_1" data-name="Layer 1" xmlns="http://www.w3.org/2000/svg" viewBox="0 0 300 300"><defs><style>.cls-1{fill:#c1272d;stroke-width:2px;}.cls-1,.cls-2{stroke:#fff;stroke-miterlimit:10;}.cls-2{fill:none;}</style></defs><title>graphics</title><circle class="cls-1" cx="150" cy="150" r="60.25"/><path class="cls-2" d="M146.73,178.58l1.4-11.72-4.63.94c.12-.26.16-.64.34-.72,3.18-1.43,4.33-3.86,3.82-7.26a28.07,28.07,0,0,1,0-4c0-9.32,0-9.31-9.31-8.7a4.94,4.94,0,0,1-1.94-.27c-.43-.15-.74-.62-1.1-.94,2.13-4.89,4-5.24,12.16-2,0-4.42.34-8.73-.18-12.93-.19-1.51-2.21-3.36-3.82-4-10.36-4.32-20.63-5.12-30.34,1.89-2.27,1.64-4.53,3.29-6.91,5-.36-8.64,4.33-16.48,11.43-19.42S137,113.89,141,120c1.65,2.5,2.16,5.36,5.77,6,.5-1.92,1-3.76,1.45-5.59l1.06,0c.31,2,.62,3.93.88,5.62l18.59-3.73c-2.52-1.79-4.17-1.82-12.61.56,3.7-5.54,12.35-7.71,20.85-5.22a23.4,23.4,0,0,1,16.85,23.07c-10.2,1.75-20.08,2.69-27.53-7-1.3-1.68-2.92-3.59-4.79-4.25-2.79-1-6.16-1.73-8.82-1-1.37.4-2.11,4.23-2.45,6.6-.42,2.88-.1,5.86-.1,9,7.57-3.41,9.72-2.88,12.62,3.41-2.14-.43-3.81-.76-5.48-1.11-5.23-1.1-7.4.39-7.22,5.65.21,6.17,1.23,12.32,1.34,18.49,0,3.17-1.45,6.35-1.63,9.55-.14,2.26.76,4.58.33,6.63q-.43,7.92-.86,15.84C147.5,194.78,148.52,186.58,146.73,178.58Z"/></svg>