<svg id="Layer_1" data-name="Layer 1" xmlns="http://www.w3.org/2000/svg" viewBox="0 0 300 300"><defs><style>.cls-1{fill:#2e3192;stroke-width:2px;}.cls-1,.cls-2{stroke:#fff;stroke-miterlimit:10;}.cls-2{fill:none;}</style></defs><title>graphics</title><circle class="cls-1" cx="150" cy="150" r="60.25"/><path class="cls-2" d="M152.17,131.32c3.47-5.94,7.4-12.66,11.34-19.38l2.1,1c0,9.85-1.23,19.35-9.37,27.15,4.78,4,.71,7.1-.09,11-2.63,12.92-7.37,25.83-4,39.42a11.76,11.76,0,0,1,0,2.24c-7.37-14.93,1.13-30.38-2-46.51-9.56,11.28-18.41,8.54-30.36-.65,7.36-10,21.35-11.56,28.47-2.77l3.5-2.48c-8.48-7.69-9.86-17.31-9.49-28.87C148.29,118.07,154.24,123.23,152.17,131.32Z"/></svg>