<svg id="Layer_1" data-name="Layer 1" xmlns="http://www.w3.org/2000/svg" viewBox="0 0 300 300"><defs><style>.cls-1,.cls-2{fill:none;stroke-miterlimit:10;}.cls-1{stroke:#000;}.cls-2{stroke:#010101;stroke-width:3px;}</style></defs><title>graphics</title><path class="cls-1" d="M129.49,116.37c6.2-4,12.19-8.39,18.65-11.91,6.69-3.64,14.28,1.38,14.73,9,.64,10.78,1.56,21.54,2.35,32.31.06.83.41,1.89,0,2.47-6.47,10,1.59,20,.14,30-.66,4.58-.11,9.32-1.37,14.05-1.59-10.77-3.17-21.55-4.62-31.34-6.57,0-11.81.61-16.8-.26-2.37-.41-4.8-3.28-6.24-5.63a13.16,13.16,0,0,1,2.57-16.54c5.79-5.25,11.8-5.11,20.33.41,0-7.51-.1-15.08,0-22.65.08-4.18.19-8.34-5.08-9.25s-8.71,2.16-10.63,6.8c-.95,2.29-1.13,4.88-2,7.23-3.21,9-9.77,14-20.42,16.37,1.19-5.88,2.2-10.83,3.2-15.79Q127,119,129.49,116.37Z"/><circle class="cls-2" cx="150" cy="150" r="60.25"/></svg>