<svg id="Layer_1" data-name="Layer 1" xmlns="http://www.w3.org/2000/svg" viewBox="0 0 300 300"><defs><style>.cls-1,.cls-2{fill:none;stroke-miterlimit:10;}.cls-1{stroke:#2d368f;}.cls-2{stroke:#010101;stroke-width:3px;}</style></defs><title>graphics</title><path class="cls-1" d="M149.14,124.73v60.18c-8-.12-14.38-5.22-16.56-13.18-4.5-16.38-1.18-31.88,6.83-46.42,1.85-3.37,5.31-5.89,8.15-8.67,2-2,4.34-2,6.34,0,2.91,3,6.39,5.64,8.36,9.15a63.4,63.4,0,0,1,7.79,41.38c-1.08,7.17-4.54,13-11.14,16.56-1.6.85-3.5,1.13-6.26,2-.32-20.91-.62-41-.93-61Z"/><circle class="cls-2" cx="150" cy="150" r="60.25"/></svg>